<svg height="100" width="100" xmlns="http://www.w3.org/2000/svg"><path d="M188.323 143.619s21.594 10.505 44.583 2.811c3.79-1.268 7.835 1.084 8.736 4.978 3.062 13.23 8.37 41.11 5.729 66.274l18.091 8.932s24.875 13.346 46.132 0l-25.779 40.022s-38.443-71.006-111.26-83.67l13.768-39.347z" fill="#632E54"/><path d="M266.579 231.22s14.028-49.538 65.758-55.675l-60.06-27.612-39.651 51.063 33.953 32.224zM332.337 172.097s13.151-42.965 58.306-41.239c37.117 1.418 60.16 21.388 69.26 32.68.832 1.033 2.485.208 2.1-1.062-8.479-27.928-49.631-130.522-194.107-118.008l-10.083 14.467 17.535 80.663 56.989 32.499z" fill="#FFF4B2"/><linearGradient gradientUnits="userSpaceOnUse" id="a" x1="408.201" x2="68.082" y1="75.592" y2="313.445"><stop offset="0" stop-color="#ffb77f"/><stop offset="1" stop-color="#c6753e"/></linearGradient><path d="M247.547 72.716c7.967 27.349 17.928 83.987-20.013 122.78l9.288 6.385s11.516-11.284 23.553-30.453c5.629-8.965 16.72-12.813 26.599-9.011l47.344 18.222a4.56 4.56 0 0 0 3.963-8.178l-51.73-30.673c-6.277-3.722-10.295-10.288-10.799-17.568-.906-13.096-3.303-35.02-9.593-53.026-1.845-5.279-.798-11.133 2.648-15.538l.128-.163c2.965-3.789 7.326-6.168 12.079-6.531 29.458-2.249 136.421-1.105 180.798 126.7.488 1.405 1.806 2.369 3.293 2.369 2.107 0 3.75-1.844 3.479-3.935-3.113-23.958-27.164-149.031-189.609-144.313-9.908.288-19.227 4.854-25.42 12.595a33.512 33.512 0 0 0-6.008 30.338z" fill="url(#a)"/><path d="M236.821 201.881s5.75-5.646 13.361-15.7c-5.026-.416-9.271-1.519-12.693-2.787a91.66 91.66 0 0 1-9.956 12.103l9.288 6.384z" fill="#C6753E"/><linearGradient gradientUnits="userSpaceOnUse" id="b" x1="258.63" x2="206.705" y1="213.163" y2="304.031"><stop offset="0" stop-color="#ffb77f"/><stop offset="1" stop-color="#c6753e"/></linearGradient><path d="M176.495 169.375s97.054 12.48 118.452 107.241v60.513H141.045s5.309-106.225 35.45-167.754z" fill="url(#b)"/><path d="M235.547 295.021l-36.003-26.006c-2.933-2.118-3.292-6.351-.757-8.933l14.831-15.108c2.918-2.972 2.499-7.839-.897-10.25-10.196-7.241-30.932-21.998-51.036-36.479-20.042 61.017-23.95 138.884-23.95 138.884h101.179l-3.367-42.108z" fill="#C6753E"/><path d="M74.055 402.715s23.718 79.63 126.327 79.63c0 0 93.485 0 109.66-79.63-.001 0-99.124-26.129-235.987 0z" fill="#AF6D94"/><path d="M286.059 397.968l.001-.003c-.32-.052-.681-.105-1.007-.158a418.325 418.325 0 0 0-3.183-.497c-.542-.083-1.075-.165-1.632-.248-.176-.026-.338-.053-.516-.079v.004c-27.464-4.064-72.091-8.162-127.723-4.34l5.218 34.155s17.339-5.515 26.446-9.03c2.402-.927 5.086-.638 7.202.829 7.05 4.888 23.801 15.841 37.927 19.984 1.536.45 3.152.352 4.656-.196 6.35-2.31 24.469-9.268 38.289-18.196-9.017 20.126-26.385 45.941-59.179 61.25 25.851-3.102 84.931-16.937 97.482-78.728.001 0-8.541-2.236-23.981-4.747z" fill="#632E54"/><path d="M52.074 347.141s-3.209 39.71 14.831 69.428a16.555 16.555 0 0 0 2.261 2.894c2.28 2.36 7.174 7.253 12.189 11.173 3.049 2.383 7.432 1.838 9.772-1.244 4.498-5.924 12.19-15.369 18.97-20.304 2.401-1.748 5.64-1.715 7.962.138 6.143 4.901 19.876 15.056 34.129 20.221 1.983.72 4.188.393 5.951-.766 5.768-3.79 19.155-12.735 27.587-19.557 2.207-1.785 5.306-1.895 7.666-.317 7.028 4.697 21.906 14.075 33.946 17.847a6.862 6.862 0 0 0 6.183-1.045c5.979-4.462 20.46-15.511 28.461-23.686 2.266-2.314 5.9-2.549 8.485-.597 6.789 5.129 19.454 14.909 29.205 23.685 2.642 2.377 6.619 2.402 9.238.002 4.084-3.739 9.845-9.098 13.039-12.438a15.421 15.421 0 0 0 2.816-4.093c4.064-8.566 18.426-41.679 13.063-71.71v-16.59l-157.6 10.369-109.906 7.051-18.248 9.539z" fill="#AF6D94"/><path d="M337.828 336.771v-16.59l-25.508 1.678-132.092 8.691-53.988 3.463 14.511 28.941s15.712-7.964 24.761-12.784a5.835 5.835 0 0 1 6.964 1.117c5.636 5.866 18.82 18.397 36.262 27.31 1.986 1.015 4.381.758 6.147-.604 5.256-4.051 16.53-13.095 24.346-21.904 2.185-2.462 5.991-2.551 8.358-.262 5.276 5.1 13.918 13.724 19.448 20.637 1.778 2.225 4.932 2.795 7.394 1.365 2.264-1.314 5.204-3.228 8.468-5.861-2.409 9.329-5.972 19.818-11.325 30.197 6.992 5.304 18.852 14.52 28.126 22.868 2.629 2.366 6.585 2.384 9.193-.005 4.094-3.75 9.881-9.133 13.077-12.476a15.312 15.312 0 0 0 2.784-4.05c4.051-8.529 18.441-41.674 13.074-71.731z" fill="#7C3E65"/><path d="M69.907 239.308s-27.856 43.12-26.469 98.247a20.021 20.021 0 0 0 4.759 12.479c3.565 4.188 9.006 10.262 15.27 16.176 1.498 1.415 3.805 1.494 5.349.129 5.644-4.99 19.265-16.656 30.321-23.116 1.089-.637 2.452-.443 3.347.446 4.198 4.17 17.033 16.094 33.905 23.973a3.933 3.933 0 0 0 4.292-.651c4.935-4.44 18.25-16.68 26.877-27.051 1.037-1.247 2.873-1.413 4.074-.324 5.809 5.267 22.199 19.604 37.092 27.727 1.549.845 3.461.512 4.685-.759 5.158-5.358 18.657-19.847 25.734-31.829.895-1.517 2.947-1.815 4.261-.643 5.737 5.122 19.417 17.657 26.089 26.495a3.918 3.918 0 0 0 5.788.531c6.108-5.592 18.878-18.135 24.917-30.373.847-1.717 3.104-2.09 4.479-.76 5.275 5.102 16.424 16.404 22.883 26.723 1.671 2.668 5.576 2.552 6.947-.282 2.422-5.007 5.994-11.799 10.106-17.743 2.699-3.9 3.745-8.691 3.177-13.401-1.672-13.872-6.298-42.106-17.43-58.061-1-1.433-2.616-2.28-4.357-2.429-10.996-.938-52.713-5.262-72.187-18.174-1.813-1.202-4.11-1.378-6.138-.591l-37.173 14.414s15.345 10.783 18.663 14.932c0 0 1.244 31.52-.83 41.889 0 0-4.562-18.664-9.954-26.959 0 0-25.714-8.709-37.326-32.764l-4.563-18.249H69.907z" fill="#AF6D94"/><path d="M334.506 356.443c2.422-5.006 5.994-11.798 10.106-17.742 2.7-3.9 3.744-8.691 3.177-13.402-1.672-13.871-6.298-42.105-17.43-58.06-1-1.434-2.616-2.28-4.357-2.43-9.958-.849-45.061-4.499-66.072-14.766 10.512 18.813 29.074 60.118 21.011 105.668 6.446-6.458 14.735-15.787 19.257-24.948.847-1.717 3.104-2.09 4.479-.76 5.275 5.102 16.424 16.404 22.883 26.723 1.669 2.669 5.575 2.551 6.946-.283zM170.107 266.977l12.427 10.047a3.806 3.806 0 0 0 5.404-.629l3.267-4.221c-3.82-4.073-7.387-8.898-10.147-14.617l-4.563-18.249h-25.902l-15.483 38.588s18.046-4.884 29.794-11.405c1.666-.925 3.721-.712 5.203.486z" fill="#7C3E65"/><path d="M309.244 221.339l-29.346 39.866c-1.916 2.602-1.166 6.275 1.635 7.885 7.487 4.304 21.354 12.113 30.193 16.115a6.059 6.059 0 0 0 6.552-.996c4.676-4.184 13.859-12.772 18.757-19.871 1.343-1.945 1.547-4.46.646-6.646-2.951-7.171-10.721-24.224-22.398-36.676-1.684-1.798-4.578-1.661-6.039.323z" fill="#7C3E65"/><path d="M69.221 287.805c-2.845 3.449-6.116 9.307-7.613 18.84a17.49 17.49 0 0 0-.015 5.39c.405 2.599 1.438 6.175 4.035 9.176 1.369 1.582 3.803 1.69 5.312.241a41.21 41.21 0 0 0 3.193-3.426 18.56 18.56 0 0 0 4.092-9.643c.53-4.5.755-11.712-1.567-19.161-1.012-3.246-5.274-4.041-7.437-1.417z" fill="#EFC3EB"/><path d="M93.133 172.12s-24.803 37.204-36.197 63.661c-.819 1.902-1.295 3.908-1.497 5.969-.403 4.111-.956 11.617-.651 19.723.196 5.209 5.721 8.47 10.331 6.035 9.607-5.072 24.581-12.797 34.735-17.161a4.008 4.008 0 0 1 5.196 1.953c2.856 5.867 9.744 17.983 21.329 26.585a11.447 11.447 0 0 0 13.354.232c6.733-4.669 17.584-12.994 26.464-23.542 1.277-1.517 3.581-1.567 4.856-.048 2.371 2.823 6.139 7.199 9.789 10.971 1.582 1.635 4.254 1.447 5.56-.417 5.161-7.369 17.575-24.904 28.119-38.313 1.647-2.095 1.207-5.127-.951-6.689l-39.563-28.636c0-.001-46.866-21.152-80.874-20.323z" fill="#AF6D94"/><path d="M174.007 192.442s-18.628-8.403-40.916-14.409v4.546s.351 12.617 22.509 33.493c1.834 1.728 4.558 2.12 6.77.911l25.953-14.179-14.316-10.362z" fill="#7C3E65"/><path d="M95.17 204.593c-4.162 2.771-9.559 7.98-14.248 17.7a19.554 19.554 0 0 0-1.76 5.764c-.408 2.912-.459 7.075 1.347 11.127.953 2.137 3.523 3.041 5.607 1.978a45.855 45.855 0 0 0 4.527-2.633c3.316-2.207 5.911-5.344 7.502-8.995 2.024-4.645 4.6-12.291 4.525-21.016-.032-3.802-4.335-6.033-7.5-3.925z" fill="#EFC3EB"/><path d="M169.579 102.659c-17.472 6.099-60.654 24.5-78.993 62.324l-3.23 21.537c-.763 5.081 4.232 9.124 9.03 7.285 10.062-3.856 20.469-7.912 32.645-9.594 1.56-.216 3.126.515 3.983 1.836 2.92 4.501 10.365 15.026 20.064 21.733 2.146 1.483 4.944 1.65 7.277.483l11.989-5.995a11.734 11.734 0 0 0 6.072-7.444c2.724-10.078 9.535-32.823 18.688-46.027 1.835-2.647 2.029-6.078.314-8.804-4.599-7.313-13.4-21.844-17.968-32.923-1.594-3.865-5.922-5.79-9.871-4.411z" fill="#AF6D94"/><path d="M145.32 130.948c-5.596 1.008-13.583 4-22.872 12.018a22.238 22.238 0 0 0-4.444 5.216c-1.743 2.854-3.68 7.173-3.628 12.218.027 2.66 2.299 4.766 4.954 4.6a52.032 52.032 0 0 0 5.914-.699c4.458-.802 8.584-2.901 11.896-5.989 4.213-3.929 10.359-10.741 14.229-19.876 1.685-3.981-1.794-8.255-6.049-7.488z" fill="#EFC3EB"/></svg>